<?xml version="1.0" encoding="iso-8859-1"?>
<!-- Uploaded to: SVG Repo, www.svgrepo.com, Generator: SVG Repo Mixer Tools -->
<svg fill="#000000" height="800px" width="800px" version="1.1" id="Layer_1" xmlns="http://www.w3.org/2000/svg" xmlns:xlink="http://www.w3.org/1999/xlink" 
	 viewBox="0 0 503.607 503.607" xml:space="preserve">
<g>
	<g>
		<g>
			<path d="M285.373,327.344h-67.148c-9.258,0-16.787,7.529-16.787,16.787v16.787c0,9.258,7.529,16.787,16.787,16.787h67.148
				c9.258,0,16.787-7.529,16.787-16.787v-16.787C302.16,334.873,294.631,327.344,285.373,327.344z"/>
			<path d="M436.459,243.41h-33.574h-0.159c-3.181-111.826-69.649-201.443-150.923-201.443
				c-76.766,0-139.541,89.617-142.546,201.443h-8.536H67.148C30.116,243.41,0,273.534,0,310.557v83.934
				c0,37.023,30.116,67.148,67.148,67.148h41.967V260.197h8.393h8.393v201.443h16.787V260.197h8.393h8.393v201.443h193.049V260.197
				h8.393h8.393v201.443h16.787V260.197h8.393h8.393v201.443h33.574c37.023,0,67.148-30.124,67.148-67.148v-83.934
				C503.607,273.534,473.482,243.41,436.459,243.41z M318.951,360.918c0,18.516-15.066,33.574-33.574,33.574h-67.148
				c-18.516,0-33.574-15.058-33.574-33.574v-16.787c0-18.516,15.058-33.574,33.574-33.574h67.148
				c18.508,0,33.574,15.058,33.574,33.574V360.918z M159.736,243.41c2.736-81.391,44.51-151.082,92.068-151.082
				c53.743,0,97.666,67.055,100.453,151.082H159.736z"/>
		</g>
	</g>
</g>
</svg>