<?xml version="1.0" encoding="iso-8859-1"?>
<!-- Uploaded to: SVG Repo, www.svgrepo.com, Generator: SVG Repo Mixer Tools -->
<svg fill="#000000" height="800px" width="800px" version="1.1" id="Layer_1" xmlns="http://www.w3.org/2000/svg" xmlns:xlink="http://www.w3.org/1999/xlink" 
	 viewBox="0 0 503.607 503.607" xml:space="preserve">
<g>
	<g>
		<g>
			<path d="M159.475,175.078c0,2.249,0.906,4.407,2.51,5.984c14.621,14.353,22.671,33.515,22.671,53.953s-8.049,39.6-22.671,53.953
				c-1.603,1.578-2.51,3.735-2.51,5.993v40.775h184.656v-40.775c0-2.258-0.906-4.415-2.51-5.993
				c-14.621-14.353-22.671-33.515-22.671-53.953s8.049-39.6,22.671-53.953c1.603-1.578,2.51-3.735,2.51-5.984v-32.39H159.475
				V175.078z M220.177,221.25l41.967-50.361c2.971-3.559,8.251-4.037,11.818-1.074c3.567,2.971,4.046,8.259,1.074,11.818
				l-30.493,36.595h32.441c3.148,0,6.026,1.763,7.462,4.558c1.444,2.795,1.192,6.161-0.63,8.712l-41.967,58.754
				c-1.637,2.3-4.222,3.517-6.841,3.517c-1.687,0-3.391-0.504-4.868-1.561c-3.777-2.694-4.65-7.94-1.956-11.709l32.491-45.484
				h-34.052c-3.257,0-6.22-1.88-7.604-4.835C217.642,227.235,218.087,223.752,220.177,221.25z"/>
			<path d="M159.475,478.426c0,13.883,11.298,25.18,25.18,25.18h134.295c13.883,0,25.18-11.298,25.18-25.18V352.525H159.475V478.426
				z"/>
			<path d="M318.951,75.541h-25.18V54.96c0-10.206-7.202-18.743-16.787-20.858V20.665C276.984,9.266,267.717,0,256.319,0h-9.031
				c-11.398,0-20.665,9.266-20.665,20.665v12.909h-8.393c-4.633,0-8.393,3.76-8.393,8.393v33.574h-25.18
				c-13.883,0-25.18,11.298-25.18,25.18v25.18h184.656v-25.18C344.131,86.839,332.834,75.541,318.951,75.541z"/>
		</g>
	</g>
</g>
</svg>