<?xml version="1.0" encoding="iso-8859-1"?>
<!-- Uploaded to: SVG Repo, www.svgrepo.com, Generator: SVG Repo Mixer Tools -->
<!DOCTYPE svg PUBLIC "-//W3C//DTD SVG 1.1//EN" "http://www.w3.org/Graphics/SVG/1.1/DTD/svg11.dtd">
<svg fill="#000000" version="1.1" id="Capa_1" xmlns="http://www.w3.org/2000/svg" xmlns:xlink="http://www.w3.org/1999/xlink" 
	 width="800px" height="800px" viewBox="0 0 581.205 581.205"
	 xml:space="preserve">
<g>
	<g>
		<path d="M378.613,254.135c0,0,29.491-26.775,1.597-54.669c-27.894-27.894-56.279-0.014-56.279-0.014l-48.636,48.64
			c-48.998,49.017-55.046,122.682-6.053,171.657c49.018,49.017,124.399,44.681,173.378-4.332l82.056-82.018
			c75.372-75.372,75.372-198.025,0-273.396l-3.299-3.299c-75.41-75.41-198.063-75.41-273.436,0L56.543,248.078
			c-75.391,75.371-75.391,198.024,0,273.435l3.299,3.299c58.69,58.676,146.942,72.666,221.429,36.204
			c19.996-9.787,41.727-28.324,27.383-54.324c-15.176-27.507-41.836-21.516-55.932-15.09
			c-42.065,17.332-104.078,12.632-138.197-21.468l-3.299-3.338c-45.24-45.201-45.24-118.8,0-164.039l191.398-191.375
			c45.24-45.24,118.838-45.24,164.04,0l3.337,3.299c45.202,45.24,45.202,118.8,0,164.04l-82.061,82.018
			c-18.843,18.843-45.173,23.18-64.016,4.332s-12.79-43.452,6.053-62.3L378.613,254.135z"/>
	</g>
</g>
</svg>