<?xml version="1.0" encoding="iso-8859-1"?>
<!-- Uploaded to: SVG Repo, www.svgrepo.com, Generator: SVG Repo Mixer Tools -->
<!DOCTYPE svg PUBLIC "-//W3C//DTD SVG 1.1//EN" "http://www.w3.org/Graphics/SVG/1.1/DTD/svg11.dtd">
<svg fill="#000000" version="1.1" id="Capa_1" xmlns="http://www.w3.org/2000/svg" xmlns:xlink="http://www.w3.org/1999/xlink" 
	 width="800px" height="800px" viewBox="0 0 611.431 611.431"
	 xml:space="preserve">
<g>
	<g>
		<path d="M526.069,0H85.362C64.238,0,47.146,17.093,47.146,38.217v103.628H564.28V38.217C564.28,17.093,547.192,0,526.069,0z"/>
		<path d="M47.146,573.215c0,21.123,17.093,38.216,38.216,38.216h440.708c21.123,0,38.216-17.093,38.216-38.216V196.83H47.146
			V573.215z M501.656,540.4H214.958v-43.04h286.699V540.4z M501.656,425.65H214.958v-43.04h286.699V425.65z M501.656,310.9H214.958
			V267.86h286.699V310.9z M109.77,267.86h42.563V310.9H109.77V267.86z M109.77,382.61h42.563v43.04H109.77V382.61z M109.77,497.36
			h42.563v43.04H109.77V497.36z"/>
	</g>
</g>
</svg>