<?xml version="1.0" encoding="iso-8859-1"?>
<!-- Uploaded to: SVG Repo, www.svgrepo.com, Generator: SVG Repo Mixer Tools -->
<svg fill="#000000" height="800px" width="800px" version="1.1" id="Layer_1" xmlns="http://www.w3.org/2000/svg" xmlns:xlink="http://www.w3.org/1999/xlink" 
	 viewBox="0 0 503.607 503.607" xml:space="preserve">
<g>
	<g>
		<g>
			<path d="M285.374,428.069h176.262V41.971H285.374V428.069z M436.456,293.774c0,4.633-3.752,8.393-8.393,8.393
				c-4.633,0-8.393-3.76-8.393-8.393V260.2c0-4.633,3.76-8.393,8.393-8.393c4.642,0,8.393,3.76,8.393,8.393V293.774z
				 M444.623,92.331h-8.167c-4.633,0-8.393-3.76-8.393-8.393s3.76-8.393,8.393-8.393h8.167c4.642,0,8.393,3.76,8.393,8.393
				S449.265,92.331,444.623,92.331z M428.063,50.364h16.56c4.642,0,8.393,3.76,8.393,8.393c0,4.633-3.752,8.393-8.393,8.393h-16.56
				c-4.633,0-8.393-3.76-8.393-8.393C419.67,54.124,423.43,50.364,428.063,50.364z M327.342,109.118h92.328
				c4.642,0,8.393,3.76,8.393,8.393c0,4.633-3.752,8.393-8.393,8.393h-92.328c-4.633,0-8.393-3.76-8.393-8.393
				C318.948,112.878,322.709,109.118,327.342,109.118z M327.342,142.692h92.328c4.642,0,8.393,3.76,8.393,8.393
				s-3.752,8.393-8.393,8.393h-92.328c-4.633,0-8.393-3.76-8.393-8.393S322.709,142.692,327.342,142.692z M327.342,176.266h92.328
				c4.642,0,8.393,3.76,8.393,8.393s-3.752,8.393-8.393,8.393h-92.328c-4.633,0-8.393-3.76-8.393-8.393
				S322.709,176.266,327.342,176.266z M302.161,377.708h8.393c4.642,0,8.393,3.76,8.393,8.393c0,4.633-3.752,8.393-8.393,8.393
				h-8.393c-4.633,0-8.393-3.76-8.393-8.393C293.768,381.468,297.528,377.708,302.161,377.708z M302.161,402.889h16.787
				c4.642,0,8.393,3.76,8.393,8.393s-3.752,8.393-8.393,8.393h-16.787c-4.633,0-8.393-3.76-8.393-8.393
				S297.528,402.889,302.161,402.889z"/>
			<path d="M478.426,0H268.59c-6.471,0-12.322,2.526-16.787,6.555C247.338,2.526,241.488,0,235.016,0H25.18
				C11.298,0,0,11.298,0,25.18v419.672c0,10.928,7.042,20.161,16.787,23.636v14.966c0,11.113,9.04,20.153,20.153,20.153h14.546
				c7.688,0,14.596-4.264,18.029-11.138l11.214-22.436h98.74l11.214,22.436c3.433,6.874,10.341,11.138,18.029,11.138h14.546
				c11.113,0,20.153-9.04,20.153-20.153v-13.421h8.393h8.393v13.421c0,11.113,9.04,20.153,20.153,20.153h14.546
				c7.688,0,14.596-4.264,18.029-11.138l11.214-22.436h98.74l11.214,22.436c3.433,6.874,10.341,11.138,18.029,11.138h14.546
				c11.113,0,20.153-9.04,20.153-20.153v-14.966c9.745-3.475,16.787-12.708,16.787-23.636V25.18C503.607,11.298,492.309,0,478.426,0
				z M54.499,484.965c-0.571,1.141-1.729,1.855-3.013,1.855H36.94c-1.855,0-3.366-1.511-3.366-3.366v-13.421H61.96L54.499,484.965z
				 M226.623,483.454c0,1.855-1.511,3.366-3.366,3.366h-14.546c-1.284,0-2.443-0.714-3.013-1.855l-7.462-14.932h28.387V483.454z
				 M235.016,436.459c0,4.642-3.752,8.393-8.393,8.393H33.574c-4.642,0-8.393-3.752-8.393-8.393V33.574
				c0-4.633,3.752-8.393,8.393-8.393h193.049c4.642,0,8.393,3.76,8.393,8.393V436.459z M297.908,484.965
				c-0.571,1.141-1.729,1.855-3.013,1.855h-14.546c-1.855,0-3.366-1.511-3.366-3.366v-13.421h28.387L297.908,484.965z
				 M470.033,483.454c0,1.855-1.511,3.366-3.366,3.366h-14.546c-1.284,0-2.443-0.714-3.013-1.855l-7.462-14.932h28.387V483.454z
				 M478.426,436.459c0,4.642-3.752,8.393-8.393,8.393H276.984c-4.642,0-8.393-3.752-8.393-8.393V33.574
				c0-4.633,3.752-8.393,8.393-8.393h193.049c4.642,0,8.393,3.76,8.393,8.393V436.459z"/>
			<path d="M41.965,428.069h176.262V41.971H41.965V428.069z M193.047,293.774c0,4.633-3.752,8.393-8.393,8.393
				c-4.633,0-8.393-3.76-8.393-8.393V260.2c0-4.633,3.76-8.393,8.393-8.393c4.642,0,8.393,3.76,8.393,8.393V293.774z
				 M201.213,92.331h-8.167c-4.633,0-8.393-3.76-8.393-8.393s3.76-8.393,8.393-8.393h8.167c4.642,0,8.393,3.76,8.393,8.393
				S205.855,92.331,201.213,92.331z M184.653,50.364h16.56c4.642,0,8.393,3.76,8.393,8.393c0,4.633-3.752,8.393-8.393,8.393h-16.56
				c-4.633,0-8.393-3.76-8.393-8.393C176.26,54.124,180.02,50.364,184.653,50.364z M83.932,109.118h92.328
				c4.642,0,8.393,3.76,8.393,8.393c0,4.633-3.752,8.393-8.393,8.393H83.932c-4.633,0-8.393-3.76-8.393-8.393
				C75.538,112.878,79.299,109.118,83.932,109.118z M83.932,142.692h92.328c4.642,0,8.393,3.76,8.393,8.393
				s-3.752,8.393-8.393,8.393H83.932c-4.633,0-8.393-3.76-8.393-8.393S79.299,142.692,83.932,142.692z M83.932,176.266h92.328
				c4.642,0,8.393,3.76,8.393,8.393s-3.752,8.393-8.393,8.393H83.932c-4.633,0-8.393-3.76-8.393-8.393
				S79.299,176.266,83.932,176.266z M58.752,377.708h8.393c4.642,0,8.393,3.76,8.393,8.393c0,4.633-3.752,8.393-8.393,8.393h-8.393
				c-4.633,0-8.393-3.76-8.393-8.393C50.358,381.468,54.118,377.708,58.752,377.708z M58.752,402.889h16.787
				c4.642,0,8.393,3.76,8.393,8.393s-3.752,8.393-8.393,8.393H58.752c-4.633,0-8.393-3.76-8.393-8.393
				S54.118,402.889,58.752,402.889z"/>
		</g>
	</g>
</g>
</svg>