<?xml version="1.0" ?><svg viewBox="0 0 22.502 22.519" xmlns="http://www.w3.org/2000/svg"><g data-name="Layer 2" id="Layer_2"><g data-name="Layer 1" id="Layer_1-2"><path d="M16.747,13.785,18.7,7.516a.343.343,0,0,1,.652,0l1.394,4.539h1.419a.342.342,0,0,1,0,.683H20.49a.342.342,0,0,1-.326-.241L19.02,8.773,17.084,15a.341.341,0,0,1-.65.006l-1.4-4.183-.784,1.718a.342.342,0,0,1-.311.2H12.152a.342.342,0,0,1,0-.683h1.573l1.054-2.306a.344.344,0,0,1,.634.034ZM8.041,0a2.081,2.081,0,1,1,.111,4.16A2.081,2.081,0,0,1,8.041,0Zm.188,3.476A1.4,1.4,0,0,0,9.55,2a1.407,1.407,0,0,0-2.438-.859A1.408,1.408,0,0,0,8.229,3.477ZM13.979,17.2l-1.415,4.3a1.492,1.492,0,0,1-2.822-.97l1.111-3.374L8.709,15.058,6.551,17.7a1.518,1.518,0,0,1-1.324.539l-3.883-.443a1.492,1.492,0,0,1,.307-2.968l3.106.354L6.292,13.3,6.015,8.175l-.829.356-1.239,3.33A1.328,1.328,0,1,1,1.473,10.9,40.1,40.1,0,0,1,3.181,6.618a18.323,18.323,0,0,1,2.758-1.3,5.458,5.458,0,0,1,4.553.117l1.971.967a.686.686,0,0,0,.628-.013l2.4-1.3a1.357,1.357,0,0,1,1.814.443,1.336,1.336,0,0,1-.5,1.862L13.447,9.219a1,1,0,0,1-.126.055c-.784.393-1.775-.433-2.656-.8l.248,4.561L13.6,15.664A1.5,1.5,0,0,1,14,17.1.694.694,0,0,1,13.979,17.2Zm-.857-1.047-2.781-2.715a.34.34,0,0,1-.1-.226L9.952,7.934a.344.344,0,0,1,.491-.325c.034.015,2.277,1.13,2.237,1.074a.66.66,0,0,0,.442-.064l3.356-1.827a.646.646,0,1,0-.665-1.107l-2.4,1.3a1.372,1.372,0,0,1-1.256.027l-1.971-.968a4.761,4.761,0,0,0-3.982-.1L3.9,6.937a.56.56,0,0,0-.1.057.674.674,0,0,0-.268.334L2.113,11.135a.655.655,0,0,0,.624.908.645.645,0,0,0,.57-.419L4.6,8.156c0-.217,1.323-.645,1.6-.8a.343.343,0,0,1,.475.295L6.981,13.4a.339.339,0,0,1-.077.235L5.167,15.756a.339.339,0,0,1-.3.124L1.575,15.5a.81.81,0,1,0-.154,1.612l3.883.443a.848.848,0,0,0,.737-.311l2.376-2.911a.338.338,0,0,1,.245-.124.333.333,0,0,1,.257.1l2.563,2.5a.34.34,0,0,1,.085.351L10.39,20.735a.81.81,0,1,0,1.526.544l1.414-4.294a1.143,1.143,0,0,0,.034-.212A.823.823,0,0,0,13.122,16.149Zm9.048,5.687H13.392a.342.342,0,0,0,0,.683H22.17A.342.342,0,0,0,22.17,21.836Zm-13.328,0H.331a.342.342,0,0,0,0,.683H8.842A.342.342,0,0,0,8.842,21.836Z" data-name="cardio workout" id="cardio_workout"/></g></g></svg>