<?xml version="1.0" encoding="iso-8859-1"?>
<!-- Uploaded to: SVG Repo, www.svgrepo.com, Generator: SVG Repo Mixer Tools -->
<svg fill="#000000" height="800px" width="800px" version="1.1" id="Layer_1" xmlns="http://www.w3.org/2000/svg" xmlns:xlink="http://www.w3.org/1999/xlink" 
	 viewBox="0 0 512 512" xml:space="preserve">
<g transform="translate(-1)">
	<g>
		<g>
			<path d="M257,196.267c-32.93,0-59.733,26.795-59.733,59.733S224.07,315.733,257,315.733s59.733-26.795,59.733-59.733
				S289.93,196.267,257,196.267z M257,298.667c-23.526,0-42.667-19.14-42.667-42.667s19.14-42.667,42.667-42.667
				s42.667,19.14,42.667,42.667S280.526,298.667,257,298.667z"/>
			<path d="M257,230.4c-14.114,0-25.6,11.486-25.6,25.6c0,14.114,11.486,25.6,25.6,25.6c14.114,0,25.6-11.486,25.6-25.6
				C282.6,241.886,271.114,230.4,257,230.4z"/>
			<path d="M257,51.2C144.078,51.2,52.2,143.078,52.2,256S144.078,460.8,257,460.8S461.8,368.922,461.8,256S369.922,51.2,257,51.2z
				 M333.8,256c0,18.108-6.332,34.739-16.853,47.881l65.553,65.553c3.336,3.337,3.336,8.73,0,12.066
				c-1.664,1.664-3.849,2.5-6.033,2.5c-2.185,0-4.369-0.836-6.033-2.5l-65.553-65.553C291.739,326.468,275.108,332.8,257,332.8
				s-34.739-6.332-47.881-16.853L143.566,381.5c-1.664,1.664-3.849,2.5-6.033,2.5s-4.369-0.836-6.033-2.5
				c-3.336-3.336-3.336-8.73,0-12.066l65.553-65.553C186.532,290.739,180.2,274.108,180.2,256s6.332-34.731,16.853-47.881
				L131.5,142.566c-3.336-3.337-3.336-8.73,0-12.066c3.337-3.337,8.73-3.337,12.066,0l65.553,65.553
				C222.261,185.532,238.892,179.2,257,179.2s34.739,6.332,47.881,16.853l65.553-65.553c3.337-3.337,8.73-3.337,12.066,0
				c3.336,3.337,3.336,8.73,0,12.066l-65.553,65.553C327.468,221.261,333.8,237.892,333.8,256z"/>
			<path d="M257,0C115.842,0,1,114.842,1,256s114.842,256,256,256s256-114.842,256-256S398.158,0,257,0z M257,477.867
				c-122.342,0-221.867-99.533-221.867-221.867S134.658,34.133,257,34.133S478.867,133.666,478.867,256S379.342,477.867,257,477.867
				z"/>
		</g>
	</g>
</g>
</svg>